# xmcd
#
# Track frame offsets: 
#        150
#        15849
#        37221
#        55047
#        79203
#        95133
#        115792
#        128229
#        142100
#        160093
#        180278
#        192861
#        215117
#        234040
#        254151
#        273315
#        290358
#
# Disc length: 4133 seconds
#
# Revision: 0
# Processed by: cddbd v1.5.2PL0 Copyright (c) Steve Scherf et al.
# Submitted via: ExactAudioCopy v1.3
#
DISCID=f1102311
DTITLE=Dani Wilde and Samantha Fish - The Very Best
DYEAR=2014
DGENRE=Blues Rock
TTITLE0=Mississippi Kisses
TTITLE1=Shine
TTITLE2=Red Blooded Woman
TTITLE3=Some Kinda Crazy
TTITLE4=Don't Go Making Me Cry
TTITLE5=Who's Loving You
TTITLE6=Heal My Blues
TTITLE7=People Like You
TTITLE8=Leavin' Kind
TTITLE9=Let's Have Some Fun
TTITLE10=Miles To Go
TTITLE11=Sucker Born
TTITLE12=Last September
TTITLE13=Kick Around
TTITLE14=Down In The Swamp
TTITLE15=Today's My Day
TTITLE16=Otherside Of The Bottle
EXTD=
EXTT0=
EXTT1=
EXTT2=
EXTT3=
EXTT4=
EXTT5=
EXTT6=
EXTT7=
EXTT8=
EXTT9=
EXTT10=
EXTT11=
EXTT12=
EXTT13=
EXTT14=
EXTT15=
EXTT16=
PLAYORDER=
